<?xml version="1.0" encoding="utf-8"?>
<!-- Generator: Adobe Illustrator 15.0.0, SVG Export Plug-In . SVG Version: 6.00 Build 0)  -->
<!DOCTYPE svg PUBLIC "-//W3C//DTD SVG 1.1//EN" "http://www.w3.org/Graphics/SVG/1.1/DTD/svg11.dtd">
<svg version="1.1" id="Capa_1" xmlns="http://www.w3.org/2000/svg" xmlns:xlink="http://www.w3.org/1999/xlink" x="0px" y="0px"
	 width="601px" height="601px" viewBox="0 0 601 601" enable-background="new 0 0 601 601" xml:space="preserve">
<g>
	<polygon fill-rule="evenodd" clip-rule="evenodd" fill="#FFFFFF" points="86.227,227.35 92.969,211.23 89.924,209.975 
		84.475,222.937 52.424,209.545 51.49,209.129 50.201,212.247 85.294,226.939 	"/>
	<path fill-rule="evenodd" clip-rule="evenodd" fill="#FFFFFF" d="M95.787,205.068l1.801-2.988l-6.761-7.565l6.995-11.985
		l9.91,2.229l1.748-2.988l-43.203-9.654l28.609,31.929L95.787,205.068z M75.703,177.609l18.678,4.161l-5.92,10.132L75.703,177.609z"
		/>
	<polygon fill-rule="evenodd" clip-rule="evenodd" fill="#FFFFFF" points="115.746,173.529 117.732,170.848 87.23,148.124 
		86.434,147.484 84.428,150.179 114.928,172.917 	"/>
	<polygon fill-rule="evenodd" clip-rule="evenodd" fill="#FFFFFF" points="126.566,159.722 138.291,146.885 135.809,144.64 
		126.332,155.022 100.69,131.581 99.891,130.925 97.709,133.384 125.793,159.046 	"/>
	<path fill-rule="evenodd" clip-rule="evenodd" fill="#FFFFFF" d="M145.633,139.792l-3.877-9.394l10.597-8.9l8.656,5.403
		l2.592-2.322l-37.45-23.41l16.795,40.888L145.633,139.792z M133.168,109.457l16.223,10.143l-8.978,7.587L133.168,109.457z"/>
	<polygon fill-rule="evenodd" clip-rule="evenodd" fill="#FFFFFF" points="186.782,109.617 189.75,108.114 181.158,91.695 
		195.916,84.007 194.417,80.979 179.635,88.707 173.215,76.398 189.08,68.111 187.559,65.156 168.704,74.997 186.332,108.73 	"/>
	<path fill-rule="evenodd" clip-rule="evenodd" fill="#FFFFFF" d="M216.008,95.389l3.166-1.079l-3.215-9.147l3.761-1.309
		c0.526-0.177,1.03-0.357,1.509-0.636l12.064,5.826l0.363,0.212l4.475-1.528l-13.671-6.583c4.491-3.87,6.235-10.226,4.211-16.019
		c-0.774-2.169-1.999-4.108-3.665-5.702c-3.965-3.815-9.883-5.091-15.057-3.275l-6.855,2.416l12.572,35.883L216.008,95.389z
		 M207.352,60.563l3.718-1.302c4.08-1.427,8.534-0.45,11.619,2.494c1.315,1.263,2.251,2.786,2.845,4.524
		c1.042,2.857,0.839,5.929-0.438,8.669c-1.318,2.675-3.645,4.765-6.535,5.781l-3.711,1.269L207.352,60.563z"/>
	<path fill-rule="evenodd" clip-rule="evenodd" fill="#FFFFFF" d="M249.629,75.073l13.621-2.604l4.511,8.287l0.362,0.67l3.418-0.67
		l-21.182-38.823l-5.418,43.939l3.438-0.689L249.629,75.073z M252.385,52.582l9.184,16.831l-11.502,2.195L252.385,52.582z"/>
	<polygon fill-rule="evenodd" clip-rule="evenodd" fill="#FFFFFF" points="281.402,78.717 281.402,79.733 284.773,79.666 
		283.584,48.953 306.418,82.019 304.883,40.793 304.842,39.777 301.471,39.887 302.674,70.646 279.832,37.524 	"/>
	<polygon fill-rule="evenodd" clip-rule="evenodd" fill="#FFFFFF" points="325.091,66.799 329.283,63.134 342.38,82.135 
		342.652,82.481 347.096,83.077 331.787,60.993 351.1,44.223 346.775,43.644 325.725,61.922 328.322,41.313 325.024,40.869 
		320.075,79.59 323.38,80.06 	"/>
	<polygon fill-rule="evenodd" clip-rule="evenodd" fill="#FFFFFF" points="246.738,372.309 243.635,222.456 231.682,210.278 
		235.256,382.749 235.283,384.226 288.53,383.128 278.127,371.654 	"/>
	<path fill-rule="evenodd" clip-rule="evenodd" fill="#FFFFFF" d="M382.26,379.67l-0.106-4.816
		c-4.856-0.197-17.635-0.763-27.263-13.625c0,0-0.546,0.014-43.813-58.443c36.771-47.311,65.726-48.764,70.82-49.439l-0.118-4.817
		l-68.946,1.463l0.113,4.78c36.861-1.889-2.871,40.116-2.871,40.116l-26.08,29.51c0,0,7.585,11.164,16.399,23.489
		c19.593,27.957,22.231,33.013,41.852,32.618L382.26,379.67z"/>
	<path fill-rule="evenodd" clip-rule="evenodd" fill="#FFFFFF" d="M247.625,552.759c-64.59-14.55-121.973-55.183-157.48-111.471
		c-24.279-38.561-37.604-83.134-38.584-128.901c-0.227-12.836,0.482-25.715,2.111-38.412c0.188-1.493-0.859-2.885-2.357-3.055
		c-1.51-0.217-2.872,0.833-3.085,2.318c-1.706,12.992-2.408,26.199-2.142,39.25c0.988,46.771,14.633,92.314,39.459,131.705
		c11.133,17.71,24.457,33.906,39.404,48.268c33.633,32.26,75.777,55.324,121.444,65.653c1.481,0.328,2.962-0.605,3.274-2.091
		C250,554.559,249.01,553.092,247.625,552.759"/>
	<path fill-rule="evenodd" clip-rule="evenodd" fill="#FFFFFF" d="M396.47,73.175c38.308,15.24,72.638,40.099,99.406,71.677
		c23.823,28.251,41.432,61.995,50.878,97.644c0.127,0.48,0.387,0.963,0.714,1.294c0.673,0.625,1.659,0.898,2.618,0.632
		c1.459-0.375,2.325-1.868,1.959-3.351c-9.653-36.395-27.628-70.893-52.006-99.729c-27.261-32.345-62.431-57.661-101.511-73.271
		c-1.431-0.559-2.991,0.129-3.558,1.549C394.397,71.026,395.09,72.621,396.47,73.175"/>
	<path fill-rule="evenodd" clip-rule="evenodd" fill="#FFFFFF" d="M358.803,539.468l-0.088-0.373
		c4.305-2.055,7.529-4.647,6.369-9.716c-1.111-4.769-6.888-4.844-10.172-4.085l-15.337,3.574l0.047,0.321
		c0.845-0.144,2.277-0.254,3.298-0.074c1.199,0.163,1.719,0.992,1.965,1.998l5.609,24.223c0.227,0.981,0.115,1.821-0.893,2.475
		c-0.52,0.339-2.393,1.117-3.164,1.357l0.066,0.333l15.604-3.631c4.236-1.007,9.706-4.771,8.381-10.532
		C369.123,539.468,362.566,538.822,358.803,539.468 M348.922,527.319c1.066-0.32,2.985-0.779,3.712-0.942
		c2.771-0.672,6.234,0.683,7.28,5.084c0.867,3.813-0.086,7.544-5.029,8.67l-2.799,0.664L348.922,527.319z M360.055,555.77
		c-3.07,0.694-4.117,0.228-4.896-1.732l-2.938-12.576c0.8-0.273,3.032-0.823,3.812-1.004c4.644-1.081,7.895,1.645,8.781,5.273
		C365.61,549.381,365.338,554.491,360.055,555.77"/>
	<path fill-rule="evenodd" clip-rule="evenodd" fill="#FFFFFF" d="M402.107,541.279c-0.867-0.219-1.375-0.818-1.82-1.685
		l-6.195-16.126l-0.447-0.17l-7.274,3.404l0.086,0.286c1.142-0.397,2.347-0.669,3.012-0.526c0.886,0.197,1.52,0.86,1.933,1.726
		l4.804,12.369c-0.241,1.139-0.913,3.717-4.079,4.96c-1.797,0.684-3.942-0.164-5.076-3.139l-5.441-14.034l-0.42-0.238l-6.689,3.214
		l0.066,0.266c0.82-0.252,1.76-0.292,2.439-0.149c0.846,0.21,1.505,0.86,1.912,1.706l3.691,9.583c1.59,4.011,4.35,6.36,8.307,4.797
		c3.691-1.393,4.563-3.711,5.556-5.969l0.146-0.033l1.039,2.563l0.394,0.185l6.517-3.022l-0.081-0.272
		C403.726,541.22,402.766,541.43,402.107,541.279"/>
	<path fill-rule="evenodd" clip-rule="evenodd" fill="#FFFFFF" d="M422.746,531.396c-4.584,2.443-8.295-1.046-11.146-6.272
		l-0.3-0.699l12.079-6.449l-0.207-0.353c-2.1-3.931-6.043-6.463-11.625-3.495c-5.391,2.886-6.003,9.211-3.438,14.068
		c2.871,5.369,8.121,8.301,14.217,5.05c3.416-1.823,5.056-5.33,4.95-8.931l-0.42-0.071
		C426.604,527.557,425.923,529.704,422.746,531.396 M411.713,514.552c3.118-1.68,5.716,1.802,7.422,5.056l-8.082,4.408
		C408.935,519.721,409.209,515.881,411.713,514.552"/>
	<path fill-rule="evenodd" clip-rule="evenodd" fill="#FFFFFF" d="M455.443,510.554c-0.88,0.157-1.659-0.326-2.23-1.125
		l-6.443-9.217c-2.553-3.528-5.816-4.773-9.295-2.333c-3.256,2.278-3.51,5.021-3.982,7.409l-0.047,0.014l-1.871-2.695l-0.275-0.014
		l-5.822,4.741l0.153,0.199c0.706-0.431,1.505-0.767,2.185-0.787c0.874,0,1.779,0.548,2.398,1.289l8.383,11.893
		c0.565,0.84,0.699,1.699,0.151,2.396c-0.405,0.531-0.784,0.903-1.431,1.444l0.158,0.273l8.861-6.243l-0.168-0.273
		c-0.65,0.398-1.244,0.78-2.004,0.874c-0.879,0.212-1.697-0.237-2.271-1.069l-7.828-11.148c-0.213-1.154,0.207-3.828,2.951-5.783
		c1.619-1.14,4.125-0.76,5.949,1.828l6.895,9.759c0.607,0.866,0.714,1.7,0.168,2.415c-0.406,0.562-0.96,0.991-1.572,1.529
		l0.159,0.275l8.882-6.236l-0.18-0.267C456.609,510.117,456.122,510.411,455.443,510.554"/>
	<path fill-rule="evenodd" clip-rule="evenodd" fill="#FFFFFF" d="M458.115,481.062c-4.79,4.369-4.857,10.599-0.44,15.417
		c4.558,4.979,10.974,4.802,15.057,1.037c5.124-4.652,4.483-11.031,0.387-15.568C468.975,477.403,462.872,476.74,458.115,481.062
		 M472.625,497.003c-3.191,2.912-7.748,0.425-11.778-3.943c-3.265-3.541-5.997-8.418-2.438-11.618
		c3.305-3.003,7.761-0.25,11.299,3.649C473.758,489.505,475.65,494.238,472.625,497.003"/>
	<path fill-rule="evenodd" clip-rule="evenodd" fill="#FFFFFF" d="M483.411,467.611c-3.431,2.037-5.076,3.013-7.036,1.288
		c-1.271-1.12-2.131-3.365-0.26-5.486c2.153-2.476,6.096-2.064,8.695-1.063l0.219-0.279l-4.963-3.949l-0.246,0.291l0.414,1.509
		c-1.354,0.308-2.879,1.344-4.491,3.193c-2.805,3.221-2.552,6.91,0,9.136c2.984,2.592,6.422,1.263,9.021-0.383
		c3.871-2.436,5.437-2.741,7.262-1.159c1.686,1.499,2.332,3.867,0.206,6.315c-2.391,2.721-8.128,1.965-10.292,0.977l-0.229,0.279
		l5.512,4.538l0.305-0.308l-0.672-1.657c1.113-0.092,3.665-1.167,5.557-3.356c2.871-3.297,3.25-7.465,0.179-10.172
		C489.746,464.867,486.829,465.617,483.411,467.611"/>
	<path fill-rule="evenodd" clip-rule="evenodd" fill="#FFFFFF" d="M526.516,425.412c-1.127,0.616-2.073,0.52-3.059,0.376
		c-4.537-0.708-17.834-2.461-30.434-4.439l-0.404,0.709c5.809,7.488,12.685,16.346,17.86,23.123
		c1.019,1.444,1.839,2.839,1.865,4.094c-0.026,0.972-0.406,2.143-0.806,2.886l0.273,0.22l5.902-10.142l-0.293-0.124
		c-0.826,1.309-3.119,4.598-4.551,3.79c-0.526-0.326-1.332-1.173-2.031-1.948c-1.021-1.073-3.051-3.438-4.451-5.272l5.783-9.803
		l8.867,1.438c0.434,0.066,0.912,0.178,1.232,0.469c0.84,0.736-0.387,3.557-1.099,4.974l0.278,0.19l7.289-12.468l-0.246-0.169
		C527.987,424.036,527.281,424.915,526.516,425.412 M505.988,438.171l-9.18-11.672l14.689,2.277L505.988,438.171z"/>
	<path fill-rule="evenodd" clip-rule="evenodd" fill="#FFFFFF" d="M503.324,398.921c-0.613,1.378,0.086,3.124,1.499,3.767
		c1.386,0.593,3.099-0.037,3.718-1.432c0.658-1.536-0.094-3.234-1.572-3.877C505.643,396.784,504.011,397.359,503.324,398.921"/>
	<path fill-rule="evenodd" clip-rule="evenodd" fill="#FFFFFF" d="M534.277,408.569c-0.666,0.631-1.574,0.677-2.531,0.269
		l-16.371-7.286l-0.232,0.11l-2.758,7.448l0.227,0.13c0.393-0.697,1.099-1.875,1.646-2.225c0.78-0.471,1.839-0.477,2.725-0.165
		l13.277,5.903c0.926,0.442,1.487,1.063,1.394,1.972c-0.074,0.653-0.227,1.192-0.5,1.976l0.26,0.164l4.438-9.954l-0.32-0.126
		C535.189,407.495,534.863,408.061,534.277,408.569"/>
	<path fill-rule="evenodd" clip-rule="evenodd" fill="#FFFFFF" d="M541.158,390.488c-0.593,0.67-1.439,0.826-2.371,0.502
		l-13.125-4.498c-0.785-0.853-2.158-3.471-1.406-5.56c0.621,0.593,1.113,0.956,1.554,1.093c1.466,0.497,2.591-0.175,3.091-1.583
		c0.486-1.469-0.359-2.688-1.979-3.248c-1.412-0.473-3.031,0.217-3.584,1.851c-0.633,1.798-0.287,4.399,1.466,7.058l-0.055,0.069
		l-3.063-1.009l-0.253,0.074l-1.933,7.251l0.272,0.11c0.294-0.771,0.747-1.544,1.294-1.952c0.713-0.511,1.752-0.621,2.69-0.347
		l13.751,4.68c0.98,0.341,1.579,0.919,1.579,1.862c-0.047,0.657-0.12,1.191-0.374,2.02l0.301,0.095l3.804-11.064l-0.292-0.11
		C542.205,388.621,541.725,389.838,541.158,390.488"/>
	<path fill-rule="evenodd" clip-rule="evenodd" fill="#FFFFFF" d="M545.643,356.379c2.351,2.345,3.484,4.265,2.691,7.762
		c-1.16,5.115-6.25,5.582-12.006,4.258l-0.778-0.185l3.058-13.343l-0.387-0.094c-4.357-0.989-8.867,0.307-10.293,6.465
		c-1.353,5.963,3.018,10.609,8.361,11.859c5.936,1.342,11.591-0.67,13.15-7.432c0.873-3.792-0.68-7.292-3.504-9.631L545.643,356.379
		z M528.374,361.379c0.786-3.404,5.11-3.111,8.708-2.279l-1.979,8.998C530.447,366.906,527.742,364.224,528.374,361.379"/>
	<path fill-rule="evenodd" clip-rule="evenodd" fill="#FFFFFF" d="M548.234,332.307c-3.73-0.477-5.737,1.754-7.43,5.349
		c-1.68,3.671-2.471,5.396-5.096,5.09c-1.658-0.24-3.664-1.653-3.324-4.437c0.413-3.205,3.896-5.107,6.629-5.75l0.02-0.369
		l-6.349-0.463l-0.026,0.408l1.145,0.957c-0.919,1.036-1.584,2.734-1.871,5.176c-0.506,4.258,1.798,7.159,5.143,7.595
		c3.917,0.483,6.016-2.62,7.27-5.39c1.771-4.21,2.938-5.402,5.336-5.089c2.204,0.293,4.137,1.875,3.73,5.066
		c-0.427,3.685-5.604,6.216-7.955,6.639l-0.013,0.396l7.055,0.601l0.073-0.437l-1.484-0.963c0.912-0.703,2.391-3.055,2.73-5.932
		C554.35,336.473,552.318,332.799,548.234,332.307"/>
</g>
</svg>
