<?xml version="1.0" encoding="utf-8"?>
<!-- Generator: Adobe Illustrator 15.0.0, SVG Export Plug-In . SVG Version: 6.00 Build 0)  -->
<!DOCTYPE svg PUBLIC "-//W3C//DTD SVG 1.1//EN" "http://www.w3.org/Graphics/SVG/1.1/DTD/svg11.dtd">
<svg version="1.1" id="Capa_1" xmlns="http://www.w3.org/2000/svg" xmlns:xlink="http://www.w3.org/1999/xlink" x="0px" y="0px"
	 width="520px" height="600px" viewBox="0 0 520 600" enable-background="new 0 0 520 600" xml:space="preserve">
<g>
	<polygon fill-rule="evenodd" clip-rule="evenodd" points="51.74,559.395 41.034,42.506 -0.195,0.5 12.133,595.407 12.228,600.5 
		195.894,596.714 160.009,557.138 	"/>
	<path fill-rule="evenodd" clip-rule="evenodd" d="M519.195,584.786l-0.367-16.614c-16.751-0.68-60.827-2.631-94.038-46.996
		c0,0-1.883,0.047-151.122-201.589c126.837-163.189,226.708-168.201,244.281-170.532l-0.407-16.617l-237.817,5.046l0.39,16.487
		c127.147-6.515-9.903,138.372-9.903,138.372l-89.957,101.788c0,0,26.162,38.508,56.566,81.021
		c67.581,96.434,76.684,113.871,144.358,112.511L519.195,584.786z"/>
</g>
</svg>
