<?xml version="1.0" encoding="utf-8"?>
<!-- Generator: Adobe Illustrator 15.0.0, SVG Export Plug-In . SVG Version: 6.00 Build 0)  -->
<!DOCTYPE svg PUBLIC "-//W3C//DTD SVG 1.1//EN" "http://www.w3.org/Graphics/SVG/1.1/DTD/svg11.dtd">
<svg version="1.1" id="Capa_1" xmlns="http://www.w3.org/2000/svg" xmlns:xlink="http://www.w3.org/1999/xlink" x="0px" y="0px"
	 width="706px" height="111px" viewBox="0 0 706 111" enable-background="new 0 0 706 111" xml:space="preserve">
<g>
	<path fill="#ECB966" d="M78.436,106.914v-3.961c9.636-0.264,12.539-4.222,12.539-14.12V27.458l-34.316,79.456h-3.3L20.23,28.118
		v62.166c0,8.843,2.111,11.744,12.804,12.669v3.961H2.411v-3.961c9.769-0.66,12.275-3.826,12.275-12.669V31.946
		c0-8.714-0.792-11.747-12.275-11.747v-3.96h34.713l26.002,63.222l27.057-63.222h33.392v3.96
		c-9.104,0.265-11.744,2.771-11.744,12.408v56.226c0,11.483,2.243,13.724,11.744,14.12v3.961H78.436z"/>
	<path fill="#ECB966" d="M208.584,32.475v39.332c0,24.021-10.294,37.219-34.578,37.219c-20.723,0-35.639-10.955-35.639-30.225
		V31.946c0-8.843-3.165-11.351-11.086-11.747v-3.96h45.535v3.96c-8.711,0-12.801,1.715-12.801,10.822v50.684
		c0,12.144,7.918,19.665,19.27,19.665c17.555,0,23.494-10.954,23.494-29.563V33.661c0-10.69-1.85-13.462-13.2-13.462v-3.96h29.83
		v3.96C211.355,20.199,208.584,24.025,208.584,32.475z"/>
	<path fill="#ECB966" d="M254.79,109.025c-6.864,0-11.351-1.057-19.005-3.563c-1.586-0.396-2.771-0.792-3.961-0.792
		c-2.375,0-3.168,1.583-3.696,4.354h-3.958V75.633h3.958c2.51,17.819,14.783,28.905,27.059,28.905c10.03,0,16.498-6.6,16.498-14.782
		c0-6.862-3.564-10.955-11.615-14.783l-13.99-6.601c-13.462-6.333-20.723-14.384-20.723-27.32c0-16.895,11.482-26.924,28.773-26.924
		c4.225,0,8.183,0.66,11.879,1.85c5.544,1.844,8.579,2.505,9.636,2.505c2.508,0,3.298-1.319,4.355-4.354h3.96v29.565H280
		c-3.829-15.707-13.33-24.815-25.738-24.815c-7.919,0-14.65,4.619-14.65,12.805c0,6.336,4.092,11.087,12.407,14.78l12.669,5.808
		c14.387,6.601,23.363,14.783,23.363,28.773C288.051,98.202,273.399,109.025,254.79,109.025z"/>
	<path fill="#ECB966" d="M372.529,44.09c-2.771-17.29-9.37-22.438-26.002-22.701v70.346c0,8.714,3.168,11.087,13.068,11.219v3.961
		H312.08v-3.961c9.634,0,12.802-2.243,12.802-11.219V21.389c-16.63,0.264-23.229,5.411-26.002,22.701h-3.562V16.239h80.775V44.09
		H372.529z"/>
	<path fill="#ECB966" d="M492.92,85.53l-3.301,9.634c-3.168,9.066-9.063,13.597-17.687,13.597c-8.009,0-12.012-3.562-12.012-10.69
		c0-3.17,0.658-6.6,1.979-10.296l11.747-35.641c0.792-2.552,1.188-4.486,1.188-5.808c0-1.936-0.836-2.904-2.507-2.904
		c-2.466,0-5.392,2.288-8.777,6.862c-3.391,4.579-6.845,10.739-10.363,18.482c-3.521,7.744-6.731,16.191-9.636,25.344l-3.168,11.089
		c-0.088,0.088-0.132,0.22-0.132,0.396v-0.133l-0.396,1.451h-18.611l26.136-88.046c0.438-1.582,0.658-2.813,0.658-3.693
		c0-1.762-0.683-3.038-2.045-3.828c-1.365-0.793-3.674-1.189-6.931-1.189l0.793-2.771c6.157-0.088,11.681-0.572,16.566-1.453
		c4.883-0.876,9.611-2.197,14.188-3.958L452.66,63.353c4.489-9.942,8.91-16.851,13.267-20.723c4.354-3.873,9.306-5.808,14.849-5.808
		c4.137,0,7.173,0.946,9.108,2.838c1.935,1.894,2.903,4.467,2.903,7.723c0,2.815-0.616,5.939-1.847,9.369l-12.937,38.94
		c-0.528,1.586-0.792,2.862-0.792,3.831c0,1.845,0.878,2.77,2.64,2.77c2.906,0,5.631-3.474,8.186-10.427l2.375-6.336H492.92z"/>
	<path fill="#ECB966" d="M564.2,85.53h2.508l-3.301,9.634c-1.761,4.932-4.202,8.431-7.326,10.495
		c-3.124,2.067-6.49,3.102-10.099,3.102c-4.577,0-7.833-1.365-9.768-4.09c-1.233-1.586-1.848-3.782-1.848-6.601
		c0-2.287,0.396-4.883,1.189-7.789c-2.994,6.513-6.316,11.219-9.967,14.125c-3.652,2.904-7.679,4.354-12.08,4.354
		c-4.839,0-8.513-1.429-11.021-4.288c-2.507-2.86-3.763-6.843-3.763-11.945c0-7.833,2.09-16.126,6.271-24.884
		c4.179-8.753,9.481-16.082,15.905-21.978c6.425-5.896,12.717-8.844,18.876-8.844c2.376,0,4.291,0.704,5.741,2.111
		c1.453,1.409,2.313,3.522,2.576,6.336l1.848-6.469c7.04-0.085,13.418-0.746,19.14-1.979l-17.293,58.87
		c-0.44,1.497-0.658,2.73-0.658,3.699c0,1.935,0.834,2.901,2.508,2.901c3.079,0,5.808-3.474,8.183-10.427L564.2,85.53z
		 M546.643,50.416c0.086-0.438,0.133-1.098,0.133-1.979c0-2.199-0.375-3.873-1.123-5.016c-0.749-1.142-1.869-1.715-3.366-1.715
		c-2.992,0-6.402,2.684-10.228,8.051c-3.829,5.37-7.085,12.103-9.769,20.194c-2.687,8.098-4.026,15.931-4.026,23.497
		c0,2.904,0.283,4.995,0.858,6.271c0.569,1.276,1.517,1.913,2.838,1.913c1.935,0,4.067-1.341,6.401-4.024
		c2.329-2.684,4.663-6.554,6.997-11.618c2.329-5.059,4.376-11.062,6.138-18.017l-0.66,3.168L546.643,50.416z"/>
	<path fill="#ECB966" d="M624.852,56.094c-2.422-3.079-3.63-6.512-3.63-10.296c0-2.816,0.768-5.016,2.31-6.601
		c1.538-1.585,3.63-2.375,6.27-2.375c3.168,0,5.477,1.343,6.93,4.024c1.451,2.686,2.09,6.404,1.914,11.155
		c-0.441,8.89-2.332,17.711-5.676,26.466c-3.344,8.756-8.184,15.994-14.52,21.714c-6.336,5.722-13.906,8.579-22.704,8.579
		c-6.6,0-11.353-1.497-14.257-4.486s-4.354-6.732-4.354-11.219c0-14.521,11.791-31.46,35.376-50.822
		c-2.113,0.265-3.984,0.881-5.611,1.847c-1.63,0.972-3.543,2.378-5.742,4.228c-1.847,1.583-3.388,2.75-4.621,3.496
		c-1.232,0.748-2.507,1.122-3.826,1.122c-1.145,0-2.51-0.439-4.092-1.32c-1.409-0.793-2.555-1.189-3.433-1.189
		c-1.233,0-2.224,0.465-2.97,1.388c-0.748,0.925-1.52,2.575-2.31,4.948l-1.057,3.567h-2.507l2.903-9.639
		c2.552-9.325,6.686-13.99,12.407-13.99c1.057,0,1.979,0.153,2.771,0.462c0.793,0.309,1.804,0.814,3.036,1.517
		c1.321,0.793,2.53,1.387,3.631,1.781c1.099,0.396,2.441,0.597,4.026,0.597c3.605,0,6.818-0.925,9.636-2.774l1.319-2.507l2.773,1.32
		c-6.514,9.416-11.705,19.206-15.578,29.368c-3.872,10.167-5.808,19.032-5.808,26.602c0,3.344,0.482,5.808,1.453,7.391
		c0.967,1.582,2.461,2.375,4.487,2.375c5.19,0,9.943-2.023,14.257-6.072c4.311-4.046,7.874-9.107,10.692-15.179
		c2.813-6.072,4.751-12.1,5.808-18.086C630.373,61.638,627.271,59.174,624.852,56.094z"/>
	<path fill="#ECB966" d="M691.313,66.391c-8.186,5.455-17.689,9.681-28.515,12.672c-0.525,2.992-0.79,5.983-0.79,8.976
		c0,4.665,0.856,7.965,2.573,9.9c1.715,1.938,4.244,2.903,7.591,2.903c2.726,0,5.808-0.858,9.24-2.575
		c3.433-1.715,6.773-4.463,10.03-8.249l2.113,1.057c-3.168,4.929-7.415,9.107-12.738,12.54c-5.325,3.432-11.287,5.146-17.888,5.146
		c-6.071,0-11.042-1.629-14.915-4.883c-3.872-3.254-5.808-7.833-5.808-13.729c0-7.831,2.111-15.926,6.336-24.287
		c4.226-8.361,9.986-15.289,17.291-20.789c7.305-5.499,15.313-8.251,24.025-8.251c4.046,0,7.346,0.902,9.899,2.705
		c2.552,1.804,3.829,4.379,3.829,7.724C703.589,54.556,699.496,60.936,691.313,66.391z M678.245,44.741
		c-3.259,3.61-6.251,8.298-8.978,14.059c-2.729,5.766-4.752,11.682-6.072,17.753c6.248-2.726,11.089-5.676,14.521-8.844
		c3.518-3.168,6.289-6.798,8.314-10.889c2.023-4.092,3.036-8.469,3.036-13.137c0-1.668-0.176-2.813-0.528-3.43
		c-0.353-0.616-0.881-0.925-1.583-0.925C684.402,39.329,681.498,41.135,678.245,44.741z"/>
</g>
</svg>
