<?xml version="1.0" encoding="utf-8"?>
<!-- Generator: Adobe Illustrator 15.0.0, SVG Export Plug-In . SVG Version: 6.00 Build 0)  -->
<!DOCTYPE svg PUBLIC "-//W3C//DTD SVG 1.1//EN" "http://www.w3.org/Graphics/SVG/1.1/DTD/svg11.dtd">
<svg version="1.1" id="Capa_1" xmlns="http://www.w3.org/2000/svg" xmlns:xlink="http://www.w3.org/1999/xlink" x="0px" y="0px"
	 width="974.843px" height="206.485px" viewBox="0 0 974.843 206.485" enable-background="new 0 0 974.843 206.485"
	 xml:space="preserve">
<g>
	<path fill="#D18783" d="M27.32,83.105c-5.258,0-8.693-0.803-14.557-2.707c-1.214-0.3-2.122-0.601-3.032-0.601
		c-1.819,0-2.427,1.202-2.832,3.308H3.867V57.746h3.032C8.82,71.277,18.222,79.697,27.623,79.697
		c7.683,0,12.636-5.012,12.636-11.227c0-5.212-2.729-8.318-8.896-11.227l-10.715-5.011C10.337,47.421,4.777,41.307,4.777,31.485
		c0-12.829,8.794-20.448,22.036-20.448c3.236,0,6.269,0.502,9.098,1.403c4.246,1.403,6.57,1.905,7.38,1.905
		c1.92,0,2.527-1.002,3.335-3.309h3.032V33.49h-3.032c-2.932-11.928-10.209-18.844-19.711-18.844c-6.064,0-11.22,3.507-11.22,9.723
		c0,4.811,3.132,8.419,9.501,11.226l9.704,4.411c11.019,5.01,17.893,11.226,17.893,21.85C52.793,74.885,41.572,83.105,27.32,83.105z
		"/>
	<path fill="#D18783" d="M93.83,83.105c-4.954,0-7.077-2.506-8.491-7.217c-4.245,4.51-10.009,7.217-15.973,7.217
		c-6.064,0-11.523-4.41-11.523-10.826c0-11.125,15.466-15.836,27.091-19.444v-6.816c0-6.114-2.021-9.121-8.086-9.121
		c-3.437,0-6.773,1.403-6.773,3.408c0,0.4,0.102,1.103,1.112,2.306c1.314,1.604,1.819,3.006,1.819,4.61
		c0,3.408-2.627,5.913-6.47,5.913c-3.84,0-6.975-2.906-6.975-7.518c0-7.316,9.604-12.527,20.014-12.527
		c6.066,0,11.525,1.604,14.658,4.209c3.336,2.806,4.853,5.613,4.853,11.627v23.855c0,2.205,0.91,3.308,2.122,3.308
		c0.81,0,1.415-0.3,2.528-1.203l1.717,2.205C102.118,81.1,97.772,83.105,93.83,83.105z M84.934,56.843
		c-7.277,1.705-12.23,6.314-12.23,12.229c0,3.709,1.921,6.415,4.953,6.415c2.932,0,5.054-1.604,7.277-4.21V56.843z"/>
	<path fill="#D18783" d="M144.203,44.114l-16.981,45.005c-3.235,8.521-7.48,13.23-14.354,13.23c-5.659,0-9.502-3.308-9.502-8.118
		c0-3.909,2.729-6.615,6.369-6.615c4.245,0,5.762,2.605,5.762,6.314c0,1.704,0.405,2.405,1.921,2.405
		c3.133,0,5.559-4.61,8.389-13.731l-14.96-37.187c-2.931-7.217-3.538-7.818-7.378-8.119v-2.605h25.675v2.605
		c-3.942,0.1-5.459,0.301-5.459,2.305c0,0.602,0.203,1.805,0.708,3.008l8.389,21.549l7.279-19.745
		c0.203-0.501,1.111-3.407,1.111-4.409c0-2.105-1.921-2.508-5.559-2.707v-2.605h15.061v2.605
		C147.438,37.599,146.124,39.102,144.203,44.114z"/>
	<path fill="#D18783" d="M236.306,65.262l-2.528,7.317c-2.427,6.884-6.942,10.325-13.546,10.325c-6.135,0-9.201-2.707-9.201-8.12
		c0-2.406,0.506-5.012,1.519-7.818l8.996-27.066c0.607-1.938,0.91-3.408,0.91-4.41c0-1.47-0.642-2.205-1.921-2.205
		c-1.887,0-4.128,1.738-6.723,5.213c-2.596,3.475-5.241,8.153-7.937,14.033c-2.695,5.881-5.155,12.297-7.38,19.246l-2.426,8.421
		c-0.068,0.067-0.101,0.167-0.101,0.301v-0.101l-0.304,1.104h-14.254l20.016-66.862c0.338-1.202,0.506-2.138,0.506-2.807
		c0-1.335-0.522-2.306-1.567-2.907s-2.814-0.902-5.308-0.902l0.607-2.105c4.717-0.064,8.947-0.434,12.688-1.102
		s7.363-1.67,10.868-3.008l-13.749,46.613c3.438-7.551,6.823-12.797,10.16-15.738c3.335-2.939,7.126-4.41,11.373-4.41
		c3.167,0,5.491,0.719,6.975,2.154c1.482,1.438,2.225,3.393,2.225,5.865c0,2.139-0.472,4.51-1.416,7.116l-9.906,29.571
		c-0.405,1.203-0.607,2.172-0.607,2.908c0,1.402,0.674,2.104,2.023,2.104c2.224,0,4.312-2.639,6.267-7.918l1.82-4.812H236.306z"/>
	<path fill="#D18783" d="M278.784,50.726c-6.269,4.146-13.548,7.353-21.836,9.623c-0.405,2.273-0.607,4.547-0.607,6.816
		c0,3.544,0.656,6.05,1.972,7.52c1.313,1.471,3.25,2.205,5.813,2.205c2.088,0,4.448-0.652,7.077-1.955
		c2.627-1.303,5.188-3.391,7.683-6.265l1.618,0.802c-2.427,3.743-5.68,6.916-9.757,9.522c-4.079,2.606-8.643,3.91-13.698,3.91
		c-4.65,0-8.458-1.238-11.424-3.709c-2.966-2.472-4.448-5.947-4.448-10.426c0-5.947,1.618-12.095,4.853-18.444
		c3.235-6.349,7.649-11.611,13.244-15.788c5.593-4.176,11.727-6.265,18.398-6.265c3.1,0,5.628,0.686,7.583,2.055
		c1.953,1.37,2.932,3.325,2.932,5.863C288.186,41.74,285.051,46.583,278.784,50.726z M268.775,34.287
		c-2.494,2.741-4.786,6.3-6.874,10.676c-2.09,4.378-3.64,8.872-4.65,13.482c4.785-2.07,8.49-4.311,11.119-6.715
		c2.695-2.406,4.819-5.163,6.369-8.271c1.551-3.106,2.326-6.431,2.326-9.973c0-1.27-0.136-2.139-0.404-2.607
		c-0.271-0.467-0.674-0.701-1.214-0.701C273.492,30.177,271.269,31.546,268.775,34.287z"/>
	<path fill="#D18783" d="M302.116,75.487c0,1.671,0.708,2.505,2.123,2.505c2.088,0,4.109-2.639,6.064-7.918l1.821-4.812h1.921
		l-2.528,7.317c-1.281,3.744-3.135,6.399-5.56,7.97c-2.426,1.568-5.055,2.355-7.887,2.355c-3.032,0-5.324-0.787-6.874-2.355
		c-1.55-1.57-2.324-3.76-2.324-6.567c0-2.07,0.405-4.41,1.213-7.016l15.872-52.327c0.336-1.202,0.506-2.138,0.506-2.807
		c0-1.335-0.524-2.306-1.567-2.907c-1.046-0.602-2.815-0.902-5.308-0.902l0.707-2.105c4.65-0.064,8.829-0.434,12.537-1.102
		c3.704-0.668,7.344-1.67,10.917-3.008L302.521,72.98C302.251,73.85,302.116,74.685,302.116,75.487z"/>
	<path fill="#D18783" d="M332.341,75.487c0,1.671,0.708,2.505,2.124,2.505c2.088,0,4.109-2.639,6.064-7.918l1.82-4.812h1.921
		l-2.528,7.317c-1.281,3.744-3.134,6.399-5.559,7.97c-2.427,1.568-5.056,2.355-7.887,2.355c-3.032,0-5.324-0.787-6.874-2.355
		c-1.551-1.57-2.325-3.76-2.325-6.567c0-2.07,0.405-4.41,1.214-7.016l15.872-52.327c0.335-1.202,0.505-2.138,0.505-2.807
		c0-1.335-0.523-2.306-1.566-2.907c-1.047-0.602-2.816-0.902-5.308-0.902l0.706-2.105c4.65-0.064,8.83-0.434,12.537-1.102
		c3.705-0.668,7.344-1.67,10.918-3.008L332.746,72.98C332.476,73.85,332.341,74.685,332.341,75.487z"/>
	<path fill="#D18783" d="M353.349,49.223c2.527-5.947,6.268-10.927,11.223-14.937c4.953-4.01,10.867-6.014,17.742-6.014
		c5.256,0,9.301,1.42,12.13,4.26c2.832,2.842,4.246,6.934,4.246,12.279c0,5.48-1.263,11.194-3.792,17.141
		c-2.526,5.95-6.267,10.928-11.22,14.938c-4.955,4.01-10.868,6.015-17.742,6.015c-5.258,0-9.301-1.419-12.132-4.261
		c-2.83-2.84-4.246-6.932-4.246-12.279C349.558,60.886,350.822,55.171,353.349,49.223z M373.618,37.394
		c-2.966,4.746-5.459,10.561-7.48,17.442c-2.023,6.884-3.033,13.3-3.033,19.247c0,2.406,0.269,4.144,0.81,5.212
		c0.538,1.069,1.414,1.604,2.627,1.604c2.493,0,5.207-2.307,8.139-6.918c2.932-4.61,5.407-10.34,7.431-17.19
		c2.021-6.85,3.032-13.349,3.032-19.497c0-2.606-0.271-4.427-0.808-5.463c-0.541-1.035-1.382-1.555-2.527-1.555
		C379.313,30.277,376.584,32.65,373.618,37.394z"/>
	<path fill="#D18783" d="M18.322,185.431c-8.188,0-11.423-5.011-11.423-12.127v-31.273H1.24v-3.308
		c7.075-3.908,11.826-8.52,17.284-18.743h2.527v17.04h9.401v5.011h-9.401v30.171c0,3.809,0.91,6.214,4.045,6.214
		c2.424,0,3.335-1.303,5.356-5.513l2.526,1.002C29.645,181.523,24.994,185.431,18.322,185.431z"/>
	<path fill="#D18783" d="M56.739,185.431c-13.041,0-22.948-9.821-22.948-25.258c0-14.033,9.907-24.757,22.948-24.757
		c13.139,0,22.843,10.724,22.843,24.757C79.582,175.61,69.878,185.431,56.739,185.431z M56.739,138.824
		c-6.27,0-8.391,6.214-8.391,21.35c0,14.834,2.121,21.852,8.391,21.852c6.267,0,8.288-7.018,8.288-21.852
		C65.027,145.038,63.006,138.824,56.739,138.824z"/>
	<path fill="#D18783" d="M154.998,146.442l-16.981,45.005c-3.235,8.52-7.48,13.229-14.354,13.229c-5.66,0-9.502-3.306-9.502-8.118
		c0-3.908,2.729-6.615,6.369-6.615c4.245,0,5.762,2.606,5.762,6.314c0,1.705,0.404,2.405,1.921,2.405
		c3.133,0,5.559-4.611,8.389-13.731l-14.96-37.187c-2.931-7.218-3.538-7.818-7.378-8.119v-2.605h25.675v2.605
		c-3.942,0.1-5.459,0.301-5.459,2.306c0,0.602,0.202,1.805,0.708,3.006l8.389,21.551l7.279-19.745
		c0.203-0.502,1.111-3.408,1.111-4.41c0-2.105-1.921-2.507-5.559-2.707v-2.605h15.061v2.605
		C158.232,139.926,156.919,141.43,154.998,146.442z"/>
	<path fill="#D18783" d="M183.127,185.431c-13.041,0-22.948-9.821-22.948-25.258c0-14.033,9.907-24.757,22.948-24.757
		c13.14,0,22.844,10.724,22.844,24.757C205.971,175.61,196.267,185.431,183.127,185.431z M183.127,138.824
		c-6.269,0-8.391,6.214-8.391,21.35c0,14.834,2.122,21.852,8.391,21.852c6.267,0,8.288-7.018,8.288-21.852
		C191.415,145.038,189.394,138.824,183.127,138.824z"/>
	<path fill="#D18783" d="M240.444,185.431v-7.616c-4.246,5.012-8.794,7.616-14.657,7.616c-9.704,0-13.444-6.113-13.444-16.236
		v-22.753c0-4.813-0.605-6.014-5.054-6.816v-2.605h19.206v32.175c0,6.415,0.91,9.221,5.357,9.221c2.931,0,4.852-0.801,8.592-4.41
		v-27.563c0-4.911-1.011-6.415-5.964-6.816v-2.605h20.116v34.78c0,5.413,0.91,7.518,5.559,7.518v2.606
		C249.44,182.226,246.105,183.829,240.444,185.431z"/>
	<path fill="#D18783" d="M297.594,150.551c-2.425,0-3.841-0.802-5.459-3.208c-1.517-2.205-2.324-2.705-3.436-2.705
		c-4.348,0-6.066,5.611-6.066,12.729v17.039c0,5.212,1.214,6.014,6.976,6.815v2.606h-26.586v-2.606
		c3.942-0.199,5.459-1.703,5.459-6.815v-27.965c0-4.813-1.011-6.616-5.459-6.816v-2.605h19.61v8.52
		c4.751-6.816,8.391-10.123,13.041-10.123c4.751,0,8.491,3.508,8.491,8.319C304.165,147.645,301.233,150.551,297.594,150.551z"/>
	<path fill="#D18783" d="M368.562,183.829v-2.606c3.942-0.199,5.357-1.604,5.357-6.815v-22.753c0-6.415-0.91-9.221-5.357-9.221
		c-2.933,0-4.852,1.202-8.592,6.113v25.86c0,4.911,0.809,6.415,4.751,6.815v2.606h-24.464v-2.606
		c4.045-0.501,5.561-1.804,5.561-6.815v-27.364c0-5.313-0.91-7.217-5.561-7.417v-2.605h19.713v7.719
		c4.245-6.116,8.086-9.322,14.656-9.322c9.703,0,13.443,6.114,13.443,16.237v22.753c0,4.811,0.607,6.014,5.056,6.815v2.606H368.562z
		"/>
	<path fill="#D18783" d="M416.237,185.431c-13.141,0-21.531-10.223-21.531-24.957c0-14.434,8.693-25.058,21.026-25.058
		c13.14,0,19.205,10.523,19.205,23.654h-26.08c0.606,12.028,4.146,18.744,12.938,18.744c4.954,0,8.693-2.707,11.626-7.017
		l2.324,1.604C430.489,180.922,424.526,185.431,416.237,185.431z M422.505,150.25c0-6.314-0.809-11.827-6.572-11.827
		c-5.154,0-7.075,5.914-7.075,13.332v3.508h13.647V150.25z"/>
	<path fill="#D18783" d="M498.33,146.442l-15.466,38.989h-2.021l-10.512-31.673l-13.344,31.673h-2.021l-16.68-42.397
		c-1.111-2.807-1.921-3.007-4.245-3.408v-2.605h22.946v2.605c-2.426,0.2-3.943,0.702-3.943,2.606c0,1.103,0.103,1.504,1.416,5.011
		l7.077,19.245l7.075-18.042l-1.314-4.31c-1.112-3.609-2.021-4.411-5.357-4.511v-2.605h23.855v2.605
		c-3.438,0.301-4.953,0.702-4.953,2.707c0,0.801,0.203,1.703,0.91,4.109l5.56,19.445l7.177-19.245
		c0.405-1.002,0.809-3.106,0.809-4.109c0-1.905-1.617-2.606-4.648-2.907v-2.605h13.443v2.605
		C501.667,139.926,500.554,140.928,498.33,146.442z"/>
	<path fill="#D18783" d="M567.48,130.003c-3.538,0-6.267-2.406-6.267-5.714c0-2.405,2.123-4.009,2.123-5.612
		c0-1.203-1.011-1.905-2.729-1.905c-5.358,0-5.358,2.105-5.358,17.642v2.606h9.099v5.011h-9.099v31.475
		c0,6.415,1.719,7.116,7.986,7.717v2.606h-28.506v-2.606c5.762-0.701,6.368-2.505,6.368-9.221v-29.971h-5.862v-5.011h5.862v-5.613
		c0-11.227,5.661-18.042,18.6-18.042c8.288,0,14.052,3.709,14.052,10.524C573.749,127.096,571.221,130.003,567.48,130.003z"/>
	<path fill="#D18783" d="M603.722,185.431c-4.953,0-7.076-2.504-8.49-7.216c-4.246,4.511-10.009,7.216-15.973,7.216
		c-6.064,0-11.523-4.408-11.523-10.823c0-11.127,15.466-15.838,27.091-19.445v-6.817c0-6.113-2.021-9.12-8.086-9.12
		c-3.437,0-6.773,1.402-6.773,3.408c0,0.4,0.102,1.103,1.112,2.304c1.313,1.605,1.819,3.009,1.819,4.611
		c0,3.408-2.628,5.915-6.47,5.915c-3.84,0-6.975-2.908-6.975-7.518c0-7.318,9.604-12.529,20.016-12.529
		c6.064,0,11.523,1.604,14.656,4.209c3.336,2.808,4.853,5.613,4.853,11.627v23.855c0,2.205,0.91,3.308,2.122,3.308
		c0.81,0,1.415-0.301,2.528-1.202l1.719,2.205C612.011,183.427,607.665,185.431,603.722,185.431z M594.826,159.171
		c-7.277,1.703-12.23,6.314-12.23,12.229c0,3.708,1.921,6.415,4.953,6.415c2.932,0,5.054-1.604,7.277-4.209V159.171z"/>
	<path fill="#D18783" d="M652.964,147.243l-15.668,38.188h-2.729l-17.185-42.197c-1.112-2.707-2.123-3.408-5.256-3.608v-2.605
		h26.181v2.605c-2.829,0-5.661,0-5.661,2.606c0,1.103,0.303,1.904,1.516,5.011l7.077,18.443l7.278-17.74
		c0.91-2.205,1.415-4.511,1.415-5.413c0-2.907-4.145-2.907-5.863-2.907v-2.605h15.971v2.605
		C656.502,140.127,655.591,140.928,652.964,147.243z"/>
	<path fill="#D18783" d="M683.071,185.431c-13.041,0-22.947-9.821-22.947-25.258c0-14.033,9.906-24.757,22.947-24.757
		c13.14,0,22.844,10.724,22.844,24.757C705.915,175.61,696.211,185.431,683.071,185.431z M683.071,138.824
		c-6.268,0-8.391,6.214-8.391,21.35c0,14.834,2.123,21.852,8.391,21.852s8.289-7.018,8.289-21.852
		C691.36,145.038,689.339,138.824,683.071,138.824z"/>
	<path fill="#D18783" d="M741.302,185.431v-7.616c-4.246,5.012-8.794,7.616-14.658,7.616c-9.703,0-13.443-6.113-13.443-16.236
		v-22.753c0-4.813-0.606-6.014-5.054-6.816v-2.605h19.205v32.175c0,6.415,0.911,9.221,5.358,9.221c2.93,0,4.852-0.801,8.592-4.41
		v-27.563c0-4.911-1.012-6.415-5.965-6.816v-2.605h20.116v34.78c0,5.413,0.911,7.518,5.56,7.518v2.606
		C750.298,182.226,746.962,183.829,741.302,185.431z"/>
	<path fill="#D18783" d="M799.359,150.551c-2.425,0-3.841-0.802-5.459-3.208c-1.517-2.205-2.324-2.705-3.436-2.705
		c-4.348,0-6.065,5.611-6.065,12.729v17.039c0,5.212,1.213,6.014,6.975,6.815v2.606h-26.586v-2.606
		c3.942-0.199,5.459-1.703,5.459-6.815v-27.965c0-4.813-1.011-6.616-5.459-6.816v-2.605h19.611v8.52
		c4.75-6.816,8.39-10.123,13.04-10.123c4.751,0,8.491,3.508,8.491,8.319C805.931,147.645,802.999,150.551,799.359,150.551z"/>
	<path fill="#D18783" d="M809.24,183.829v-2.606c4.043-0.199,5.356-1.703,5.356-6.215v-28.065c0-5.411-1.313-6.915-5.356-7.316
		v-2.605h19.509v37.987c0,4.109,1.213,5.614,4.851,6.215v2.606H809.24z M821.674,129.502c-4.146,0-7.683-3.408-7.683-7.919
		c0-4.61,3.537-8.019,7.683-8.019c4.144,0,7.681,3.408,7.681,7.919C829.354,125.994,825.817,129.502,821.674,129.502z"/>
	<path fill="#D18783" d="M851.898,185.431c-8.188,0-11.423-5.011-11.423-12.127v-31.273h-5.659v-3.308
		c7.075-3.908,11.826-8.52,17.284-18.743h2.527v17.04h9.401v5.011h-9.401v30.171c0,3.809,0.91,6.214,4.045,6.214
		c2.425,0,3.335-1.303,5.356-5.513l2.526,1.002C863.221,181.523,858.57,185.431,851.898,185.431z"/>
	<path fill="#D18783" d="M890.062,185.431c-13.141,0-21.531-10.223-21.531-24.957c0-14.434,8.693-25.058,21.025-25.058
		c13.141,0,19.206,10.523,19.206,23.654h-26.08c0.606,12.028,4.146,18.744,12.938,18.744c4.954,0,8.693-2.707,11.626-7.017
		l2.324,1.604C904.313,180.922,898.35,185.431,890.062,185.431z M896.329,150.25c0-6.314-0.809-11.827-6.572-11.827
		c-5.154,0-7.075,5.914-7.075,13.332v3.508h13.647V150.25z"/>
	<path fill="#D18783" d="M931.681,185.431c-2.932,0-5.358-0.601-9.099-2.004c-1.517-0.5-2.526-0.701-3.133-0.701
		c-1.921,0-2.831,1.103-3.134,2.705h-2.427v-16.738h2.831c1.012,6.616,5.154,13.332,13.748,13.332c4.346,0,7.277-2.406,7.277-6.615
		c0-3.107-1.719-5.112-6.57-7.819l-7.076-3.908c-6.873-3.71-10.107-7.116-10.107-13.531c0-8.521,6.771-14.734,15.668-14.734
		c3.133,0,4.548,0.501,8.793,1.805c0.911,0.299,1.922,0.5,2.527,0.5c1.213,0,1.719-0.701,2.427-2.305h2.224v15.034h-2.527
		c-2.426-6.815-5.963-11.627-12.535-11.627c-3.94,0-6.67,2.406-6.67,5.714c0,3.507,2.527,5.212,7.48,7.917l5.053,2.808
		c7.783,4.411,11.221,6.815,11.221,14.936C947.651,178.416,942.093,185.431,931.681,185.431z"/>
	<path fill="#D18783" d="M965.011,185.431c-4.751,0-8.693-3.507-8.693-8.618c0-5.313,3.74-8.721,8.693-8.721
		c5.054,0,8.592,3.408,8.592,8.721C973.603,181.924,969.964,185.431,965.011,185.431z"/>
</g>
</svg>
